<?xml version="1.0" encoding="utf-8"?>
<!-- Generator: Adobe Illustrator 22.0.1, SVG Export Plug-In . SVG Version: 6.00 Build 0)  -->
<svg version="1.1" id="Capa_1" xmlns="http://www.w3.org/2000/svg" xmlns:xlink="http://www.w3.org/1999/xlink" x="0px" y="0px"
	 viewBox="0 0 512 512" style="enable-background:new 0 0 512 512;" xml:space="preserve">
<style type="text/css">
	.st0{fill:#056774;}
</style>
<g>
	<path class="st0" d="M138.4,180.7v62.6c45.2,0,62.8,1.5,73.6-14.3c7.2-10.5,7-27-2-37C198.6,179.5,186.2,180.7,138.4,180.7z"/>
	<path class="st0" d="M256,0C114.6,0,0,114.6,0,256s114.6,256,256,256s256-114.6,256-256S397.4,0,256,0z M255.5,245.5
		c-9.4,17.6-25.2,28.6-41.9,32.2c-19.6,3.9-48.6,3.2-75.3,3.2v83.3H93.8V143.4c73.1,0,109.4-0.8,124.5,3.3
		c12.6,3.3,23.2,10.5,31.8,21.6C266.6,189.8,265.9,226,255.5,245.5z M399.8,351.9c-12.2,10.5-30.4,15.8-54.4,15.8
		c-21.8,0-39-4.4-51.7-13.3c-12.7-8.8-21-20.8-24.9-36l42.5-6.5c4,18,16.1,25.1,34.2,25.1c13.8,0,30.3-3.5,30.3-17.3
		c0-9.3-7.8-11.4-17.2-13.6c-34.1-7.5-55.8-14.4-64.9-20.6c-12.6-8.6-19-20.6-19-36c0-13.9,5.5-25.5,16.4-34.9s27.9-14.2,50.9-14.2
		c34.9,0,61,8.4,70.8,42.3l-39.9,7.4c-1.7-6.2-4.9-11-9.7-14.3c-10.9-7.6-35.9-5.7-44.3-0.3c-6,4.1-6.7,11.7-0.6,16.3
		c12.3,9,64.6,12.3,86.7,30.7c8.8,7.5,13.3,18,13.3,31.5C418.2,328.8,412.1,341.4,399.8,351.9z"/>
</g>
</svg>
