<?xml version="1.0" encoding="utf-8"?>
<!-- Generator: Adobe Illustrator 22.0.1, SVG Export Plug-In . SVG Version: 6.00 Build 0)  -->
<svg version="1.1" id="Capa_1" xmlns="http://www.w3.org/2000/svg" xmlns:xlink="http://www.w3.org/1999/xlink" x="0px" y="0px"
	 viewBox="0 0 512 512" style="enable-background:new 0 0 512 512;" xml:space="preserve">
<style type="text/css">
	.st0{fill:#0AB3E3;}
</style>
<g>
	<polygon class="st0" points="162.3,271.5 221.7,271.5 191.7,190.7 	"/>
	<path class="st0" d="M394.9,237.7c-5.9-6.3-13.2-9.4-21.7-9.4c-9.1,0-16.6,3.3-22.6,10c-5.9,6.6-8.9,15.6-8.8,27h62.4
		C403.9,253.2,400.8,244,394.9,237.7z"/>
	<path class="st0" d="M256,0C114.6,0,0,114.6,0,256s114.6,256,256,256s256-114.6,256-256S397.4,0,256,0z M254.8,357.6l-19-49.5
		h-87.1l-18,49.5H84.2L169,139.9h46.5l87.2,217.8H254.8z M351.2,319.7c6.4,6.9,14.5,10.3,24.1,10.3c6.5,0,12-1.8,16.5-5.3
		c4.5-3.6,7.8-9.3,10.1-17.2l41.6,7c-5.3,15.3-13.8,26.9-25.3,34.8c-11.5,8-26,12-43.3,12c-27.4,0-47.7-9-60.9-26.9
		c-10.4-14.4-15.6-32.5-15.6-54.4c0-26.1,6.8-46.6,20.5-61.4c13.7-14.8,30.9-22.2,51.8-22.2c23.5,0,42,7.8,55.6,23.2
		c13.6,15.5,20.1,39.2,19.5,71.2H341.1C341.4,303.2,344.8,312.8,351.2,319.7z"/>
</g>
</svg>
