<?xml version="1.0" encoding="utf-8"?>
<!-- Generator: Adobe Illustrator 22.0.1, SVG Export Plug-In . SVG Version: 6.00 Build 0)  -->
<svg version="1.1" id="Layer_1" focusable="false" xmlns="http://www.w3.org/2000/svg" xmlns:xlink="http://www.w3.org/1999/xlink"
	 x="0px" y="0px" viewBox="0 0 640 512" style="enable-background:new 0 0 640 512;" xml:space="preserve">
<style type="text/css">
	.st0{fill:#F8AB05;}
	.st1{fill:#0AB3E3;}
</style>
<path class="st0" d="M255,261.6c6.3,6.3,16.4,6.3,22.6,0l11.3-11.3c6.3-6.3,6.3-16.4,0-22.6L253.3,192l35.7-35.7
	c6.3-6.3,6.3-16.4,0-22.6l-11.3-11.3c-6.3-6.3-16.4-6.3-22.6,0l-58.3,58.3c-6.3,6.3-6.3,16.4,0,22.6L255,261.6z"/>
<path class="st0" d="M351,250.3l11.3,11.3c6.3,6.3,16.4,6.3,22.6,0l58.3-58.3c6.3-6.3,6.3-16.4,0-22.6L385,122.4
	c-6.3-6.3-16.4-6.3-22.6,0L351,133.7c-6.3,6.3-6.3,16.4,0,22.6l35.7,35.7L351,227.7C344.8,234,344.8,244.1,351,250.3L351,250.3z"/>
<path class="st1" d="M624,416H381.5c-0.7,19.8-14.7,32-32.7,32H288c-18.7,0-33-17.5-32.8-32H16c-8.8,0-16,7.2-16,16v16
	c0,35.2,28.8,64,64,64h512c35.2,0,64-28.8,64-64v-16C640,423.2,632.8,416,624,416z"/>
<path class="st1" d="M528,0H112C85.6,0,64,21.6,64,48v336h512V48C576,21.6,554.4,0,528,0z M512,320H128V64h384V320z"/>
</svg>
