<svg xmlns="http://www.w3.org/2000/svg" width="335.01" height="60.691" viewBox="0 0 335.01 60.691">
  <g id="Group_14434" data-name="Group 14434" transform="translate(-19948 -5950)">
    <g id="Group_14430" data-name="Group 14430" transform="translate(19936.639 5740.352)">
      <path id="Path_11550" data-name="Path 11550" d="M11.409,232.237c-.436,6.817,2.159,12.65,6.335,17.87l2.737,3.278,6.438,7.71,3.636-4.2L24.5,249.824l-.053.017c-.78-1.029-1.579-2.044-2.338-3.088A27.055,27.055,0,0,1,18.87,241.2c-.03-.074-.064-.147-.094-.221-2.173-5.462-2.158-10.883.723-16.071a17.623,17.623,0,0,1,12.161-8.9,18.116,18.116,0,0,1,8.2.122,18.306,18.306,0,0,1,6.32,2.933,17.732,17.732,0,0,1,6.88,18.712,23.99,23.99,0,0,1-6.49,10.837c-5.166,5.2-10.428,10.3-15.647,15.452-.194.19-.368.4-.576.627l3.9,4.5c.19-.177.319-.289.439-.409,5.14-5.1,10.26-10.224,15.43-15.3a39.8,39.8,0,0,0,5.042-6.212,24.359,24.359,0,0,0,4.268-11.981,22.907,22.907,0,0,0-4.859-16.355,23.442,23.442,0,0,0-15.787-9.05,24.585,24.585,0,0,0-7.546.105,22.411,22.411,0,0,0-7.267,2.5c-7.722,4.33-12,10.9-12.561,19.742" fill="#fff"/>
      <path id="Path_11551" data-name="Path 11551" d="M46.707,257.927l-2.4,2.412,2.682,2.933.141.132L54,270.822h0c2.18,2.22-1.208,5.965-3.706,3.491l0,0-2.542-2.7-2.651,2.5,2.693,2.859.007-.007a6.19,6.19,0,0,0,10.158-6.546,6.477,6.477,0,0,0-1.3-2.094Z" transform="translate(-18.648 -27.325)" fill="#fff"/>
      <path id="Path_11552" data-name="Path 11552" d="M62.8,241.317l-9.044-9.242a5.442,5.442,0,0,0-3.442-1.427l-.071,0c-.055,0-.111,0-.165,0s-.111,0-.166,0l-.07,0a5.442,5.442,0,0,0-3.443,1.427l-9.044,9.242a.424.424,0,0,0,0,.589l2.074,2.18a.425.425,0,0,0,.611,0l7.729-7.883h0l0,.006.013-.012a3.407,3.407,0,0,1,1.933-.875c.087,0,.164-.009.243-.011h.24c.079,0,.156.007.243.011a3.405,3.405,0,0,1,1.932.875l.014.012v-.006h0l7.729,7.883a.424.424,0,0,0,.61,0l2.074-2.18a.423.423,0,0,0,0-.589" transform="translate(-14.644 -11.882)" fill="#f27e2b"/>
      <path id="Path_11553" data-name="Path 11553" d="M65.035,251.842a1.375,1.375,0,1,0,1.375,1.375,1.376,1.376,0,0,0-1.375-1.375" transform="translate(-29.6 -23.881)" fill="#fff"/>
      <path id="Path_11554" data-name="Path 11554" d="M61.252,244.872a5.269,5.269,0,1,0,3.809,6.4,5.269,5.269,0,0,0-3.809-6.4M62,250.711l-2.042,2.618-2.042-2.618a2.53,2.53,0,0,1-.51-1.532,2.556,2.556,0,0,1,1.041-2.054,2.5,2.5,0,0,1,1.512-.5,2.768,2.768,0,0,1,.809.125,2.483,2.483,0,0,1,1.618,1.618A2.582,2.582,0,0,1,62,250.711" transform="translate(-24.52 -19.844)" fill="#fff"/>
      <path id="Path_11555" data-name="Path 11555" d="M370.87,297.018a79.523,79.523,0,0,1,6.38,6.846,4.169,4.169,0,0,0,3.337,1.764h.293v2.213h-.345c-2.109,0-3.25-1.175-4.478-2.8-.571-.743-1.107-1.452-1.522-1.919h-.087a5.1,5.1,0,0,1-1.366,2.939c-1.573,1.158-4.512,1.971-7.746,1.971-4.374,0-7.02-1.66-7.02-5.567a7.878,7.878,0,0,1,.605-3.077l.692.224a6.3,6.3,0,0,0-.26,1.815c0,2.767,2.213,4.305,6.363,4.305,2.507,0,6-.605,7.521-2.109a2.25,2.25,0,0,0-.294-1.02,22.15,22.15,0,0,0-4.27-5.256c-.467-.484-.847-.882-1.089-1.176a5.518,5.518,0,0,1-.121-.951,3.035,3.035,0,0,1,.467-1.486,2.186,2.186,0,0,1,.622-.64c1.8-1.158,5.879-2.559,10.633-4.046l.069.1a13.993,13.993,0,0,1-1.332,2.127c-1.037.259-2.524.761-3.959,1.279a51.518,51.518,0,0,0-5.239,2.2v.052" transform="translate(-196.373 -44.939)" fill="#fff"/>
      <path id="Path_11556" data-name="Path 11556" d="M409.02,310.992a11.17,11.17,0,0,0,3.406-.329c.6-.224.986-.467.986-.76,0-.813-.83-2.507-1.729-4.271a13.714,13.714,0,0,1,1.3-1.954h.087a12.2,12.2,0,0,1,1.729,5.274,5.18,5.18,0,0,1-1.21,3.215c-.778.778-2.006,1.038-4.652,1.038h-.207a1.111,1.111,0,0,1-1.21-1.158,1.077,1.077,0,0,1,1.21-1.055Zm1.3-8.8c-.709-.674-1.332-1.228-2.024-1.8a15.749,15.749,0,0,1,1.366-1.643,16.327,16.327,0,0,1,1.971,1.851,9.232,9.232,0,0,1-1.314,1.591m3.336-.225c-.709-.674-1.331-1.227-2.023-1.8A15.538,15.538,0,0,1,413,298.526a16.257,16.257,0,0,1,1.971,1.85,9.153,9.153,0,0,1-1.314,1.591" transform="translate(-224.219 -50.304)" fill="#fff"/>
      <path id="Path_11557" data-name="Path 11557" d="M461.1,311.182l.208.2.211-.2a9.487,9.487,0,0,0,1.356-1.639c.517.441,1.014.89,1.562,1.411l.209.2.21-.2a9.377,9.377,0,0,0,1.356-1.639l.142-.2-.168-.181a16.358,16.358,0,0,0-2.007-1.883l-.217-.169-.192.2a15.778,15.778,0,0,0-1.355,1.622,14.816,14.816,0,0,0-1.574-1.426l-.217-.17-.191.2a15.787,15.787,0,0,0-1.393,1.676l-.168.232.221.183c.685.565,1.3,1.115,2.007,1.784" transform="translate(-253.286 -55.034)" fill="#fff"/>
      <path id="Path_11558" data-name="Path 11558" d="M463.253,302.989l.208.2.211-.2a9.542,9.542,0,0,0,1.356-1.639l.141-.2-.168-.181a16.349,16.349,0,0,0-2.007-1.883l-.217-.17-.191.2a15.7,15.7,0,0,0-1.393,1.675l-.168.232.221.183c.686.566,1.306,1.116,2.007,1.784" transform="translate(-254.504 -50.525)" fill="#fff"/>
      <path id="Path_11559" data-name="Path 11559" d="M481.972,300.52a2.3,2.3,0,0,0-.389.361l-.538.932.285.425.235-.107a17.464,17.464,0,0,1,4.418-1.274l.128-.02.074-.106a8.559,8.559,0,0,0,.7-1.218l.031-.063-.007-.445-.323.019c-.571.034-1.163.068-1.74.068-1.046,0-2.127-.289-2.166-.774a1.328,1.328,0,0,1,.9-.326,1.925,1.925,0,0,1,.456.041c.012,0,.125.046.36.516l.084.169h.366l.092-.109a2.083,2.083,0,0,0,.625-1.321,1.242,1.242,0,0,0-1.4-1.153,3.592,3.592,0,0,0-2.3,1.067,2.629,2.629,0,0,0-.911,1.746,1.746,1.746,0,0,0,1.011,1.572" transform="translate(-265.788 -48.951)" fill="#fff"/>
      <path id="Path_11560" data-name="Path 11560" d="M458.07,309.7h-.41l-.092.113a14,14,0,0,0-1.327,2l-.079.142.074.145a14.681,14.681,0,0,1,1.7,4.132s-.01.186-.785.473a9.635,9.635,0,0,1-2.907.309c-1.721-.017-2.6-.518-2.6-1.49a10.28,10.28,0,0,1,.406-2.292l.039-.148-.331-.413-1.6.944-.325,1.335c-.342,1.391-.94,2.067-1.829,2.067-.405,0-.888-.13-.888-.749a8.652,8.652,0,0,1,.5-2.432l.049-.155-.319-.4-1.512.689-.492,1.4a2.447,2.447,0,0,1-.887,1.214l-.014.01a1.97,1.97,0,0,1-1.128.421c-.437,0-.6-.132-.821-.667a24.864,24.864,0,0,0-1.432-3.334l-.085-.166h-.419l-.091.136c-.472.707-.812,1.241-1.156,1.874l-.087.161.1.153a9.779,9.779,0,0,1,1.732,4.414c0,1.467-2.343,3.36-4.83,3.36a3.623,3.623,0,0,1-3.913-3.878,7.675,7.675,0,0,1,.8-3.108l.117-.264-1.108-.57-.15.231a9.432,9.432,0,0,0-1.416,5.008c0,3.463,2.045,5.614,5.337,5.614a6.767,6.767,0,0,0,6.091-3.56,12.324,12.324,0,0,0,.636-2.578h.085a3.4,3.4,0,0,0,2.711-1.184,1.964,1.964,0,0,0,1.992,1.184,4.178,4.178,0,0,0,3.03-1.476c.44.677,1.369,1.359,3.314,1.463v.013h1.259v-.026c1.913-.087,2.916-.408,3.608-1.1l.029-.032a5.512,5.512,0,0,0,1.272-3.4,12.877,12.877,0,0,0-1.769-5.425Z" transform="translate(-237.263 -56.625)" fill="#fff"/>
      <path id="Path_11561" data-name="Path 11561" d="M513.428,298.945l-.087-.154h-.41l-.092.112a13.919,13.919,0,0,0-1.326,2l-.08.142.074.145c.676,1.325,1.7,3.326,1.7,4.132,0,0-.009.186-.784.473a10.936,10.936,0,0,1-3.3.31h-.536a3.217,3.217,0,0,1-1-.172,1.5,1.5,0,0,1-1.1-1.562v-.986c0-4.3,0-8.743-.278-12.54l-.012-.163-.442-.252-.162.128a15.8,15.8,0,0,0-1.66,1.641l-.089.1.01.131c.221,3.137.449,6.823.449,10.37,0,2.5,0,3.877,1.162,5.057a4.1,4.1,0,0,0,3.172,1.075h.5c2.693-.007,3.947-.3,4.769-1.127l.028-.032a5.512,5.512,0,0,0,1.272-3.4,12.874,12.874,0,0,0-1.769-5.425" transform="translate(-278.737 -45.721)" fill="#fff"/>
      <path id="Path_11562" data-name="Path 11562" d="M518.736,337.678h-.552c-.092,0-.231-.216-.231-.541a3.507,3.507,0,0,1,1.033-1.962l.185-.215-.842-.842-.216.2a5.4,5.4,0,0,0-1.93,3.957c0,1.455.755,2.432,1.879,2.432a1.78,1.78,0,0,0,1.845-1.792,1.154,1.154,0,0,0-1.17-1.24" transform="translate(-285.722 -70.448)" fill="#fff"/>
      <path id="Path_11563" data-name="Path 11563" d="M538.745,313.526l-1.3-2.468-.458-.076-.107.175c-.4.658-.794,1.349-1.237,2.177l-.085.159.1.152a27.233,27.233,0,0,1,2.045,3.75c.015.041.03.082.045.123a2.253,2.253,0,0,1,.175.68,1.552,1.552,0,0,1-.164.636c-1.152,2.585-3.588,4.472-5.79,4.487a5.776,5.776,0,0,1-1.825-.3l-.291-.094-.364,1.127.232.118a10.39,10.39,0,0,0,4.582,1.365,4.394,4.394,0,0,0,3.074-1.669l.015-.015a8.174,8.174,0,0,0,2.248-5v-1.9a6.822,6.822,0,0,0-.9-3.427" transform="translate(-293.256 -57.354)" fill="#fff"/>
      <path id="Path_11564" data-name="Path 11564" d="M578.329,329.147h-3.994c-2.507,0-5.446-.225-6.829-.225a6.8,6.8,0,0,0-3.856,1.038c-.9.623-1.47,1.193-1.47,1.677,0,1.315,2.524,1.92,6.173,1.92,1.625,0,3.25-.052,4.875-.1,1.574-.052,3.13-.086,4.7-.086l.052.155a12.359,12.359,0,0,1-1.625,1.884c-1.937,0-3.752.052-5.463.1-1.3.034-2.524.086-3.682.086-3.13,0-6.433-.224-6.433-2.611a5.344,5.344,0,0,1,1.193-2.9c1.8-2.317,3.891-3.389,5.913-3.389,1.556,0,4.392.242,6.674.242h3.769Z" transform="translate(-310.964 -66.246)" fill="#fff"/>
      <path id="Path_11565" data-name="Path 11565" d="M613.572,315.231a20.032,20.032,0,0,1,.277,3.077,5.846,5.846,0,0,1-.623,2.369,3.318,3.318,0,0,1-2.558,1.9,2.921,2.921,0,0,1-2.162-1.435h-.138a4.044,4.044,0,0,1-3.026,1.486,1.484,1.484,0,0,1-1.659-1.469h-.069a4.63,4.63,0,0,1-3.683,1.469h-.293a1.11,1.11,0,0,1-1.21-1.158,1.075,1.075,0,0,1,1.21-1.055h.587a4.1,4.1,0,0,0,3.648-1.608l.952-1.366,1.331-.467.069.087a6.5,6.5,0,0,0-1.176,2.49.827.827,0,0,0,.9.865,2.764,2.764,0,0,0,1.539-.5c.6-.449.691-.951,1.227-2.749l1.037-.606.1.07a7.588,7.588,0,0,0-.225,1.694,1.865,1.865,0,0,0,1.8,1.988.812.812,0,0,0,.916-.778,15.747,15.747,0,0,0-.432-2.8,13.087,13.087,0,0,1,1.556-1.556Z" transform="translate(-332.272 -59.729)" fill="#fff"/>
      <path id="Path_11566" data-name="Path 11566" d="M671.4,310.034l.208.2.211-.2a9.538,9.538,0,0,0,1.356-1.639c.516.44,1.013.89,1.562,1.411l.208.2.21-.2a9.407,9.407,0,0,0,1.356-1.639l.141-.2-.167-.181a16.387,16.387,0,0,0-2.007-1.883l-.217-.169-.192.2a15.668,15.668,0,0,0-1.355,1.622,14.907,14.907,0,0,0-1.574-1.427l-.217-.17-.191.2a15.691,15.691,0,0,0-1.393,1.675l-.168.232.221.182c.685.565,1.3,1.115,2.007,1.784" transform="translate(-372.312 -54.385)" fill="#fff"/>
      <path id="Path_11567" data-name="Path 11567" d="M673.551,301.841l.208.2.211-.2a9.512,9.512,0,0,0,1.357-1.639l.141-.2-.168-.182a16.385,16.385,0,0,0-2.007-1.883l-.217-.17-.19.2a15.6,15.6,0,0,0-1.394,1.676l-.168.232.221.183c.686.565,1.305,1.115,2.007,1.783" transform="translate(-373.53 -49.875)" fill="#fff"/>
      <path id="Path_11568" data-name="Path 11568" d="M700.079,337.857h-.552c-.092,0-.231-.216-.231-.541a3.506,3.506,0,0,1,1.033-1.962l.185-.215-.842-.842-.216.2a5.4,5.4,0,0,0-1.93,3.957c0,1.454.755,2.432,1.879,2.432a1.78,1.78,0,0,0,1.845-1.793,1.154,1.154,0,0,0-1.171-1.24" transform="translate(-388.361 -70.549)" fill="#fff"/>
      <path id="Path_11569" data-name="Path 11569" d="M668.5,309.7h-.41l-.092.113a14.008,14.008,0,0,0-1.327,2l-.08.142.074.145c.675,1.325,1.7,3.326,1.7,4.132,0,0-.01.186-.785.473a9.93,9.93,0,0,1-3,.309c-1.748-.01-2.635-.511-2.635-1.491a10.293,10.293,0,0,1,.405-2.292l.039-.148-.332-.413-1.6.944-.324,1.335c-.342,1.391-.941,2.067-1.83,2.067-.405,0-.887-.13-.887-.749a8.685,8.685,0,0,1,.5-2.432l.049-.155-.319-.4-1.511.689-.492,1.4a2.442,2.442,0,0,1-.887,1.214l-.013.01a1.975,1.975,0,0,1-1.129.421c-.437,0-.6-.132-.821-.667a24.869,24.869,0,0,0-1.432-3.334l-.085-.166h-.419l-.091.136c-.472.707-.812,1.241-1.156,1.874l-.087.161.1.153a9.787,9.787,0,0,1,1.731,4.414c0,1.467-2.342,3.36-4.83,3.36a3.623,3.623,0,0,1-3.913-3.878,7.683,7.683,0,0,1,.8-3.108l.117-.264-1.108-.57-.151.231a9.436,9.436,0,0,0-1.415,5.008c0,3.463,2.046,5.614,5.337,5.614a6.769,6.769,0,0,0,6.092-3.56,12.315,12.315,0,0,0,.635-2.578h.085a3.4,3.4,0,0,0,2.712-1.184,1.963,1.963,0,0,0,1.991,1.184,4.178,4.178,0,0,0,3.03-1.476,3.557,3.557,0,0,0,2.744,1.412,1.86,1.86,0,0,0,.493.063h1.335v-.02c2-.079,3.029-.4,3.739-1.107l.028-.032a5.512,5.512,0,0,0,1.272-3.4,12.876,12.876,0,0,0-1.769-5.425Z" transform="translate(-356.289 -56.625)" fill="#fff"/>
      <path id="Path_11570" data-name="Path 11570" d="M713.84,309.392l-.033.214.626.338.161-.178a4.778,4.778,0,0,0,1.6-2.963,28.49,28.49,0,0,0,.121-2.879c0-5.13-.143-9.007-.451-12.2l-.019-.2-.513-.171-.132.12a15.9,15.9,0,0,0-1.731,1.872l-.074.1.01.12c.146,1.576.622,7.008.622,10.726v1.7a22.711,22.711,0,0,1-.187,3.41" transform="translate(-397.343 -46.245)" fill="#fff"/>
      <path id="Path_11571" data-name="Path 11571" d="M757.122,303.264c.566.478,1.1.928,1.641,1.443l.2.189.21-.178a7.294,7.294,0,0,0,1.5-1.768l.122-.2-.161-.17a15.967,15.967,0,0,0-2.116-1.886l-.226-.167-.184.213c-.5.574-1,1.222-1.415,1.781l-.172.229.219.187.387.327" transform="translate(-421.749 -51.436)" fill="#fff"/>
      <path id="Path_11572" data-name="Path 11572" d="M746.1,313.566l-1.487.018a8.3,8.3,0,0,1-2.847-.531,17.177,17.177,0,0,0-5.785-1.527c-2.28,0-3.91,1.365-4.057,3.4l0,.066.944,2.544h.605l.616-1.848-.189-.789a2.553,2.553,0,0,1,1.86-.648,14.9,14.9,0,0,1,4.778.995c-3.322,1.936-5.992,2.8-8.6,2.8H729.61c-.53-3.414-2.147-5.775-3.982-5.775a3.635,3.635,0,0,0-2.912,1.789,4.964,4.964,0,0,0-.938,2.961c0,2.554,1.894,3.85,5.632,3.85h.425a6.183,6.183,0,0,1-1.422,1.9,6.43,6.43,0,0,1-4.588,2.293,4.931,4.931,0,0,1-2.4-.586l-.274-.148-.566,1.1.241.148a10.213,10.213,0,0,0,5.14,1.791,6.433,6.433,0,0,0,4.422-3.092,8.564,8.564,0,0,0,1.334-3.408h2.059a13.717,13.717,0,0,0,7.654-2.366l2.884-1.883a4.991,4.991,0,0,1,2.82-.592l.194,0,1.125-2.23Zm-18.318,4.478a10.344,10.344,0,0,1-2.645-.247c-1.1-.321-1.662-.8-1.662-1.418,0-.509.831-1.216,1.648-1.216a2.219,2.219,0,0,1,1.608.87,4.872,4.872,0,0,1,1.051,2.011" transform="translate(-400.281 -57.662)" fill="#fff"/>
      <path id="Path_11573" data-name="Path 11573" d="M159.176,213.726a3.932,3.932,0,1,1-1.151-2.819,3.835,3.835,0,0,1,1.151,2.819" transform="translate(-79.166 -0.061)" fill="#5baa46"/>
      <path id="Path_11574" data-name="Path 11574" d="M501.659,213.726a3.931,3.931,0,1,1-1.151-2.819,3.836,3.836,0,0,1,1.151,2.819" transform="translate(-273.008 -0.061)" fill="#5baa46"/>
      <path id="Path_11575" data-name="Path 11575" d="M148.221,253.055a1.158,1.158,0,0,1-1.31,1.31h-2.263v5.48H148.1a7.229,7.229,0,0,0,3.038-.576,5.876,5.876,0,0,0,3.216-3.514,6.892,6.892,0,0,0,.377-2.224V232.169h-6.512Z" transform="translate(-75.438 -12.747)" fill="#fff"/>
      <path id="Path_11576" data-name="Path 11576" d="M191.73,231.606q-2.4-1.908-7.008-1.907a19.032,19.032,0,0,0-2.423.139,9.469,9.469,0,0,0-2,.476,7.811,7.811,0,0,0-1.727.874,11.077,11.077,0,0,0-1.628,1.37l4.05,4.05a5.485,5.485,0,0,1,1.469-1.112,4.718,4.718,0,0,1,1.946-.317,4.005,4.005,0,0,1,2.462.6,2.491,2.491,0,0,1,.754,2.065v.556h-4.328a9.309,9.309,0,0,0-3.276.516,6.605,6.605,0,0,0-2.263,1.37,5.213,5.213,0,0,0-1.31,1.985,6.664,6.664,0,0,0-.417,2.323,8.005,8.005,0,0,0,.477,2.8,6.013,6.013,0,0,0,1.389,2.2,6.244,6.244,0,0,0,2.2,1.41,8.091,8.091,0,0,0,2.919.5,6.61,6.61,0,0,0,2.739-.477,7.12,7.12,0,0,0,2.025-1.469V251.3h6.353V237.442q0-3.931-2.4-5.836m-4.11,11.673a2.883,2.883,0,0,1-.635,2.144,2.613,2.613,0,0,1-1.092.655,6.21,6.21,0,0,1-1.49.139,2.186,2.186,0,0,1-1.608-.536,1.716,1.716,0,0,1-.536-1.251,1.546,1.546,0,0,1,.556-1.23,2.241,2.241,0,0,1,1.509-.477h3.3Z" transform="translate(-93.198 -11.349)" fill="#fff"/>
      <path id="Path_11577" data-name="Path 11577" d="M238.321,231.685a7.392,7.392,0,0,0-2.045-1.489,6.415,6.415,0,0,0-2.72-.5,6.815,6.815,0,0,0-5.043,1.906,5.951,5.951,0,0,0-1.131,1.549,6.712,6.712,0,0,0-.6,1.826,15.206,15.206,0,0,0-.218,2.184q-.04,1.191-.04,2.66t.04,2.661a15.179,15.179,0,0,0,.218,2.184,6.7,6.7,0,0,0,.6,1.826,5.943,5.943,0,0,0,1.131,1.549,6.763,6.763,0,0,0,5,1.906,7,7,0,0,0,2.6-.437,5.957,5.957,0,0,0,2.005-1.35v1.549a4.121,4.121,0,0,1-.159,1.092,2.936,2.936,0,0,1-.536,1.052,2.879,2.879,0,0,1-1.052.794,4.013,4.013,0,0,1-1.707.318,6.314,6.314,0,0,1-2.005-.3,4.211,4.211,0,0,1-1.648-1.052l-4.05,4.05a8.416,8.416,0,0,0,3.574,2.2,15.689,15.689,0,0,0,4.447.576,11.469,11.469,0,0,0,3.971-.655,9,9,0,0,0,3.037-1.807,8.1,8.1,0,0,0,1.946-2.74,8.633,8.633,0,0,0,.695-3.494V229.937h-6.314Zm-.258,9.728a4.218,4.218,0,0,1-.317,1.35,2.256,2.256,0,0,1-.755.953,2.92,2.92,0,0,1-2.8,0,2.187,2.187,0,0,1-.774-.953,4.2,4.2,0,0,1-.318-1.35q-.059-.754-.059-1.588t.059-1.588a4.2,4.2,0,0,1,.318-1.35,2.186,2.186,0,0,1,.774-.953,2.92,2.92,0,0,1,2.8,0,2.256,2.256,0,0,1,.755.953,4.224,4.224,0,0,1,.317,1.35q.06.755.06,1.588t-.06,1.588" transform="translate(-121.782 -11.349)" fill="#fff"/>
      <path id="Path_11578" data-name="Path 11578" d="M292.091,231.606q-2.4-1.908-7.008-1.907a19.029,19.029,0,0,0-2.422.139,9.469,9.469,0,0,0-2,.476,7.824,7.824,0,0,0-1.727.874,11.124,11.124,0,0,0-1.628,1.37l4.05,4.05a5.485,5.485,0,0,1,1.469-1.112,4.718,4.718,0,0,1,1.946-.317,4.005,4.005,0,0,1,2.462.6,2.491,2.491,0,0,1,.754,2.065v.556h-4.328a9.309,9.309,0,0,0-3.276.516,6.6,6.6,0,0,0-2.263,1.37,5.213,5.213,0,0,0-1.31,1.985,6.665,6.665,0,0,0-.417,2.323,8.015,8.015,0,0,0,.477,2.8,6.019,6.019,0,0,0,1.39,2.2,6.243,6.243,0,0,0,2.2,1.41,8.091,8.091,0,0,0,2.919.5,6.61,6.61,0,0,0,2.74-.477,7.132,7.132,0,0,0,2.025-1.469V251.3h6.353V237.442q0-3.931-2.4-5.836m-4.11,11.673a2.883,2.883,0,0,1-.635,2.144,2.615,2.615,0,0,1-1.092.655,6.212,6.212,0,0,1-1.49.139,2.186,2.186,0,0,1-1.608-.536,1.716,1.716,0,0,1-.536-1.251,1.546,1.546,0,0,1,.556-1.23,2.241,2.241,0,0,1,1.509-.477h3.3Z" transform="translate(-150.001 -11.349)" fill="#fff"/>
      <path id="Path_11579" data-name="Path 11579" d="M346.238,225.7a7.034,7.034,0,0,0-1.271-2.462,5.96,5.96,0,0,0-2.124-1.648,7.063,7.063,0,0,0-3.018-.6,6.542,6.542,0,0,0-4.685,1.985v-8.656h-6.512V242.6h6.512V229.656a3.069,3.069,0,0,1,.278-1.41,2.5,2.5,0,0,1,.655-.834,2.259,2.259,0,0,1,.814-.417,2.453,2.453,0,0,1,1.509,0,2.27,2.27,0,0,1,.814.417,2.514,2.514,0,0,1,.655.834,3.075,3.075,0,0,1,.278,1.41V242.6h6.512V228.743a10.678,10.678,0,0,0-.417-3.038" transform="translate(-179.569 -2.649)" fill="#fff"/>
      <path id="Path_11580" data-name="Path 11580" d="M392.573,236.271a7.273,7.273,0,0,0-2.388-1.656,8.97,8.97,0,0,0-3.466-.655,8.68,8.68,0,0,0-3.427.655,7.266,7.266,0,0,0-2.388,1.656,7.518,7.518,0,0,0-1.849,3.313,20.722,20.722,0,0,0,0,8.7,7.791,7.791,0,0,0,1.849,3.351,7.248,7.248,0,0,0,2.388,1.656,8.68,8.68,0,0,0,3.427.655,8.97,8.97,0,0,0,3.466-.655,7.255,7.255,0,0,0,2.388-1.656,7.8,7.8,0,0,0,1.849-3.351,20.72,20.72,0,0,0,0-8.7,7.53,7.53,0,0,0-1.849-3.313m-1.848,10.669a4.49,4.49,0,0,1-1.117,2.35,3.92,3.92,0,0,1-2.889,1.155,3.874,3.874,0,0,1-2.85-1.155,4.483,4.483,0,0,1-1.117-2.35,15.08,15.08,0,0,1-.231-3,15.708,15.708,0,0,1,.231-3.043,4.446,4.446,0,0,1,1.117-2.311,3.861,3.861,0,0,1,2.85-1.117,3.911,3.911,0,0,1,2.889,1.117,4.453,4.453,0,0,1,1.117,2.311,15.779,15.779,0,0,1,.231,3.043,15.147,15.147,0,0,1-.231,3" transform="translate(-207.848 -13.76)" fill="#fff"/>
      <path id="Path_11581" data-name="Path 11581" d="M433.2,233.959a6.786,6.786,0,0,0-5.2,2.2V234.19h-3.852v19.527h3.928v-11.9q0-4.352,4.045-4.352,3.928,0,3.928,4.352v11.9h3.929V241.238a7.369,7.369,0,0,0-1.963-5.508,6.673,6.673,0,0,0-4.815-1.772" transform="translate(-233.631 -13.76)" fill="#fff"/>
      <path id="Path_11582" data-name="Path 11582" d="M474.4,238.1V216.3h-3.929V238.33a5.462,5.462,0,0,0,1.271,3.775,5.15,5.15,0,0,0,4.082,1.618h2.427v-3.351h-1.733q-2.118,0-2.118-2.272" transform="translate(-259.852 -3.764)" fill="#fff"/>
      <rect id="Rectangle_5315" data-name="Rectangle 5315" width="3.929" height="19.527" transform="translate(222.716 220.431)" fill="#fff"/>
      <path id="Path_11583" data-name="Path 11583" d="M528.7,233.959a6.786,6.786,0,0,0-5.2,2.2V234.19h-3.852v19.527h3.928v-11.9q0-4.352,4.045-4.352,3.929,0,3.928,4.352v11.9h3.928V241.238a7.369,7.369,0,0,0-1.964-5.508,6.673,6.673,0,0,0-4.815-1.772" transform="translate(-287.686 -13.76)" fill="#fff"/>
      <path id="Path_11584" data-name="Path 11584" d="M582.617,243.357a10.134,10.134,0,0,0-2.156-6.779,7.7,7.7,0,0,0-6.125-2.619,7.425,7.425,0,0,0-6.008,2.619,10.963,10.963,0,0,0-2.272,7.357q0,5.238,2.543,7.78a8.429,8.429,0,0,0,6.239,2.234,10.286,10.286,0,0,0,4.2-.77,10.785,10.785,0,0,0,3.121-2.272l-2.5-2.349a6.479,6.479,0,0,1-4.737,2q-4.969,0-4.969-5.469h12.671Zm-12.671-1a7.005,7.005,0,0,1,.5-2.657,4.272,4.272,0,0,1,7.742,0,6.89,6.89,0,0,1,.539,2.657Z" transform="translate(-313.951 -13.76)" fill="#fff"/>
      <path id="Path_11585" data-name="Path 11585" d="M615.74,270.783a2.436,2.436,0,1,1-.714-1.746,2.375,2.375,0,0,1,.714,1.746" transform="translate(-339.288 -33.21)" fill="#fff"/>
      <path id="Path_11586" data-name="Path 11586" d="M685.716,235.477a7.429,7.429,0,0,0-2.44-1.691,9.156,9.156,0,0,0-3.54-.669,8.859,8.859,0,0,0-3.5.669,7.412,7.412,0,0,0-2.439,1.691,7.672,7.672,0,0,0-1.889,3.383,21.172,21.172,0,0,0,0,8.889,7.964,7.964,0,0,0,1.889,3.422,7.4,7.4,0,0,0,2.439,1.691,8.858,8.858,0,0,0,3.5.669,9.156,9.156,0,0,0,3.54-.669,7.422,7.422,0,0,0,2.44-1.691,7.981,7.981,0,0,0,1.887-3.422,21.156,21.156,0,0,0,0-8.889,7.688,7.688,0,0,0-1.887-3.383m-1.889,10.9a4.569,4.569,0,0,1-1.141,2.4,4,4,0,0,1-2.95,1.18,3.956,3.956,0,0,1-2.91-1.18,4.589,4.589,0,0,1-1.141-2.4,15.453,15.453,0,0,1-.236-3.068,16.1,16.1,0,0,1,.236-3.108,4.556,4.556,0,0,1,1.141-2.36,3.943,3.943,0,0,1,2.91-1.14,3.993,3.993,0,0,1,2.95,1.14,4.536,4.536,0,0,1,1.141,2.36,16.1,16.1,0,0,1,.236,3.108,15.453,15.453,0,0,1-.236,3.068" transform="translate(-373.595 -13.283)" fill="#fff"/>
      <path id="Path_11587" data-name="Path 11587" d="M744.33,234.926a6.813,6.813,0,0,0-4.917-1.809,6.93,6.93,0,0,0-5.309,2.242s-.36.369-.851.975a6,6,0,0,0-1.065-1.408,6.811,6.811,0,0,0-4.917-1.809,6.931,6.931,0,0,0-5.31,2.242v-2.006h-3.934V253.3h4.013V241.141q0-4.444,4.129-4.445,4.012,0,4.012,4.445V253.3h4.013v-12.6q.2-4,4.118-4,4.011,0,4.012,4.445V253.3h4.012V240.551a7.525,7.525,0,0,0-2.006-5.625" transform="translate(-399.964 -13.283)" fill="#fff"/>
      <path id="Path_11588" data-name="Path 11588" d="M626.751,243.3q0,5.349,2.6,7.945a8.612,8.612,0,0,0,6.372,2.282,10.519,10.519,0,0,0,4.288-.787,11.015,11.015,0,0,0,3.187-2.321l-2.557-2.4a6.612,6.612,0,0,1-4.838,2.045q-5.074,0-5.075-5.585v-2.321q0-5.586,5.075-5.586a6.614,6.614,0,0,1,4.838,2.046l2.557-2.4a11.015,11.015,0,0,0-3.187-2.321,10.512,10.512,0,0,0-4.288-.787,8.612,8.612,0,0,0-6.372,2.282q-2.6,2.6-2.6,7.945Z" transform="translate(-348.303 -13.283)" fill="#fff"/>
    </g>
    <rect id="Rectangle_5316" data-name="Rectangle 5316" width="335.01" height="60.69" transform="translate(19948 5950)" fill="none"/>
  </g>
</svg>
