<?xml version="1.0" encoding="utf-8"?>
<!-- Generator: Adobe Illustrator 22.0.1, SVG Export Plug-In . SVG Version: 6.00 Build 0)  -->
<svg version="1.1" id="Layer_1" focusable="false" xmlns="http://www.w3.org/2000/svg" xmlns:xlink="http://www.w3.org/1999/xlink"
	 x="0px" y="0px" viewBox="0 0 512 512" style="enable-background:new 0 0 512 512;" xml:space="preserve">
<style type="text/css">
	.st0{fill:#0AB3E3;}
</style>
<path class="st0" d="M256,8C119.3,8,8,119.2,8,256c0,136.7,111.3,248,248,248s248-111.3,248-248C504,119.2,392.7,8,256,8z M33,256
	c0-32.3,6.9-63,19.3-90.7l106.4,291.4C84.3,420.5,33,344.2,33,256z M256,479c-21.9,0-43-3.2-63-9.1l66.9-194.4l68.5,187.8
	c0.5,1.1,1,2.1,1.6,3.1C306.9,474.5,282,479,256,479z M286.7,151.5c13.4-0.7,25.5-2.1,25.5-2.1c12-1.4,10.6-19.1-1.4-18.4
	c0,0-36.1,2.8-59.4,2.8c-21.9,0-58.7-2.8-58.7-2.8c-12-0.7-13.4,17.7-1.4,18.4c0,0,11.4,1.4,23.4,2.1l34.7,95.2L200.6,393
	l-81.2-241.5c13.4-0.7,25.5-2.1,25.5-2.1c12-1.4,10.6-19.1-1.4-18.4c0,0-36.1,2.8-59.4,2.8c-4.2,0-9.1-0.1-14.4-0.3
	C109.6,73,178.1,33,256,33c58,0,110.9,22.2,150.6,58.5c-1-0.1-1.9-0.2-2.9-0.2c-21.9,0-37.4,19.1-37.4,39.6
	c0,18.4,10.6,33.9,21.9,52.3c8.5,14.8,18.4,33.9,18.4,61.5c0,19.1-7.3,41.2-17,72.1l-22.2,74.3L286.7,151.5L286.7,151.5z
	 M368.1,448.7l68.1-196.9c12.7-31.8,17-57.2,17-79.9c0-8.2-0.5-15.8-1.5-22.9c17.4,31.8,27.3,68.2,27.3,107
	C479,338.3,434.4,410.1,368.1,448.7z"/>
</svg>
